 <svg
            xmlns="http://www.w3.org/2000/svg"
            width="30"
            height="30"
            viewBox="0 0 30 30"
            fill="none"
          >
            <path
              d="M15 0C18.9782 0 22.7936 1.58035 25.6066 4.3934C28.4196 7.20644 30 11.0218 30 15C30 18.9782 28.4196 22.7936 25.6066 25.6066C22.7936 28.4196 18.9782 30 15 30C11.0218 30 7.20644 28.4196 4.3934 25.6066C1.58035 22.7936 0 18.9782 0 15C0 11.0218 1.58035 7.20644 4.3934 4.3934C7.20644 1.58035 11.0218 0 15 0ZM17.2498 9.20934C18.364 9.20934 19.2683 8.43583 19.2683 7.28948C19.2683 6.14313 18.3619 5.36962 17.2498 5.36962C16.1356 5.36962 15.2357 6.14313 15.2357 7.28948C15.2357 8.43583 16.1356 9.20934 17.2498 9.20934ZM17.642 21.2663C17.642 21.0371 17.7212 20.4414 17.6762 20.1028L15.9149 22.1298C15.5507 22.5134 15.0943 22.7791 14.88 22.7084C14.7828 22.6726 14.7016 22.6033 14.6509 22.513C14.6002 22.4226 14.5834 22.3172 14.6036 22.2156L17.5391 12.9419C17.7791 11.7656 17.1191 10.6921 15.72 10.555C14.2436 10.555 12.0709 12.0527 10.7489 13.9533C10.7489 14.1804 10.706 14.7461 10.751 15.0846L12.5102 13.0555C12.8744 12.6762 13.2987 12.4084 13.513 12.4813C13.6185 12.5191 13.705 12.5969 13.7539 12.6979C13.8028 12.7988 13.8101 12.9149 13.7744 13.0212L10.8646 22.2498C10.5282 23.3298 11.1646 24.3883 12.7073 24.6282C14.9786 24.6282 16.3199 23.1669 17.6441 21.2663H17.642Z"
              fill="#B6B6B6"
            />
          </svg>